<?xml version="1.0" encoding="UTF-8"?>
<svg xmlns="http://www.w3.org/2000/svg" viewBox="0 0 113.7 93.8">
  <defs>
    <style>
      .cls-1 {
        fill: #dd1829;
      }

      .cls-2 {
        fill: #1d1d1b;
      }
    </style>
  </defs>
  <path class="cls-2" d="M56.84,93.8c-11.39,0-21.33-1.94-29.82-5.82-8.49-3.88-15.12-9.37-19.88-16.46-4.76-7.09-7.14-15.24-7.14-24.46s2.38-17.65,7.14-24.69c4.76-7.04,11.39-12.53,19.88-16.46C35.51,1.97,45.45,0,56.84,0s21.2,1.97,29.74,5.9c8.54,3.94,15.19,9.42,19.96,16.46,4.76,7.04,7.14,15.27,7.14,24.69s-2.38,17.37-7.14,24.46c-4.76,7.09-11.42,12.58-19.96,16.46-8.54,3.88-18.46,5.82-29.74,5.82M56.84,70.35c5.18,0,9.6-.93,13.28-2.8,3.67-1.86,6.5-4.55,8.46-8.07s2.95-7.66,2.95-12.43-.98-9.19-2.95-12.66c-1.97-3.47-4.79-6.13-8.46-8-3.68-1.86-8.1-2.8-13.28-2.8s-9.63.93-13.36,2.8c-3.73,1.87-6.58,4.53-8.54,8-1.97,3.47-2.95,7.64-2.95,12.5s.98,9.06,2.95,12.58c1.96,3.52,4.81,6.21,8.54,8.07,3.73,1.86,8.18,2.8,13.36,2.8"/>
</svg>
